<?xml version="1.0" encoding="UTF-8" standalone="no"?>
<!-- Created with Inkscape (http://www.inkscape.org/) -->

<svg
   xmlns:dc="http://purl.org/dc/elements/1.1/"
   xmlns:cc="http://creativecommons.org/ns#"
   xmlns:rdf="http://www.w3.org/1999/02/22-rdf-syntax-ns#"
   xmlns:svg="http://www.w3.org/2000/svg"
   xmlns="http://www.w3.org/2000/svg"
   xmlns:xlink="http://www.w3.org/1999/xlink"
   xmlns:inkscape="http://www.inkscape.org/namespaces/inkscape"
   version="1.1"
   width="199.875"
   height="249.125"
   id="svg2">
  <defs
     id="defs4">
    <inkscape:path-effect
       effect="spiro"
       id="path-effect3807" />
    <linearGradient
       id="linearGradient3785">
      <stop
         id="stop3787"
         style="stop-color:#f4ec00;stop-opacity:1"
         offset="0" />
      <stop
         id="stop3789"
         style="stop-color:#f4c600;stop-opacity:1"
         offset="1" />
    </linearGradient>
    <inkscape:path-effect
       effect="spiro"
       id="path-effect2987" />
    <linearGradient
       x1="220.15405"
       y1="396.52426"
       x2="443.90381"
       y2="396.52426"
       id="linearGradient3793"
       xlink:href="#linearGradient3785"
       gradientUnits="userSpaceOnUse" />
    <linearGradient
       x1="220.15405"
       y1="396.52426"
       x2="443.90381"
       y2="396.52426"
       id="linearGradient3805"
       xlink:href="#linearGradient3785"
       gradientUnits="userSpaceOnUse"
       gradientTransform="matrix(1.4353524,0,0,1.4353524,-144.5496,-172.62779)" />
    <linearGradient
       x1="220.15405"
       y1="396.52426"
       x2="443.90381"
       y2="396.52426"
       id="linearGradient3867"
       xlink:href="#linearGradient3785"
       gradientUnits="userSpaceOnUse"
       gradientTransform="matrix(2.0731914,0,0,2.0731914,-356.33061,-425.54643)" />
    <linearGradient
       x1="220.15405"
       y1="396.52426"
       x2="443.90381"
       y2="396.52426"
       id="linearGradient3069"
       xlink:href="#linearGradient3785"
       gradientUnits="userSpaceOnUse" />
    <linearGradient
       x1="220.15405"
       y1="396.52426"
       x2="443.90381"
       y2="396.52426"
       id="linearGradient3008"
       xlink:href="#linearGradient3785"
       gradientUnits="userSpaceOnUse"
       gradientTransform="matrix(1.996928,0,0,1.996928,-351.25358,-401.36707)" />
    <mask
       id="mask4004">
      <path
         d="m 472.75139,411.92548 a 45.456863,45.456863 0 1 1 -90.91373,0 45.456863,45.456863 0 1 1 90.91373,0 z"
         transform="matrix(0.86666666,0,0,0.88888889,27.678185,35.667977)"
         id="path4006"
         style="fill:#ffffff;fill-opacity:1;fill-rule:evenodd;stroke:none;display:inline" />
    </mask>
    <linearGradient
       x1="220.15405"
       y1="396.52426"
       x2="443.90381"
       y2="396.52426"
       id="linearGradient4105"
       xlink:href="#linearGradient3785"
       gradientUnits="userSpaceOnUse"
       gradientTransform="translate(-313.44877,-304.59572)" />
  </defs>
  <metadata
     id="metadata7">
    <rdf:RDF>
      <cc:Work
         rdf:about="">
        <dc:format>image/svg+xml</dc:format>
        <dc:type
           rdf:resource="http://purl.org/dc/dcmitype/StillImage" />
        <dc:title></dc:title>
      </cc:Work>
    </rdf:RDF>
  </metadata>
  <g
     transform="translate(-313.44877,-304.59572)"
     id="layer1"
     style="display:inline">
    <path
       d="m 55.5,-53.78125 c -30.822641,-0.224407 -61.749185,9.295746 -86.875,27.1875 -30.92407,22.02062 -52.71241,56.48441 -59.28125,93.875 -6.56884,37.3906 2.16897,77.27005 23.84375,108.4375 21.67479,31.16745 56.04368,53.24233 93.40625,59.96875 17.46629,3.14447 36.03346,2.94266 52.3125,-4.125 10.98733,-4.77022 20.68498,-12.69674 27,-22.875 8.8785,-14.30995 10.48339,-32.91329 4.03125,-48.46875 C 106.3141,151.48308 100.40018,143.9065 93.90625,137 c -2.999219,0.73878 -6.123577,1.15625 -9.34375,1.15625 -22.033238,0 -39.90625,-18.33932 -39.90625,-40.9375 0,-22.598193 17.873012,-40.90625 39.90625,-40.90625 18.39046,0 33.85144,12.76423 38.46875,30.125 1.15156,-0.871134 2.18254,-1.87975 3.09375,-3 1.88746,-2.32047 3.19707,-5.13804 3.65625,-8.09375 0.45919,-2.95572 0.0539,-6.04583 -1.15625,-8.78125 -1.14302,-2.5836 -2.99944,-4.80026 -5.15625,-6.625 -2.15681,-1.82473 -4.5979,-3.26822 -7.125,-4.53125 -5.05419,-2.52608 -10.48437,-4.40715 -15.0625,-7.71875 -3.90047,-2.82141 -7.07836,-6.67998 -9,-11.09375 -1.92164,-4.41376 -2.5499,-9.39473 -1.65625,-14.125 0.76267,-4.03697 2.58368,-7.78787 4.84375,-11.21875 2.26007,-3.43088 4.95924,-6.56626 7.59375,-9.71875 2.6345,-3.1525 5.21281,-6.35655 7.28125,-9.90625 2.06845,-3.5497 3.62169,-7.49752 3.9375,-11.59375 0.34881,-4.52423 -0.83005,-9.0945 -3.03125,-13.0625 -2.20119,-3.968 -5.40382,-7.32778 -9.09375,-9.96875 -7.37985,-5.28195 -16.44093,-7.62263 -25.40625,-9.03125 -7.031839,-1.104831 -14.137083,-1.698214 -21.25,-1.75 z"
       transform="translate(313.44877,304.59572)"
       id="path4066"
       style="fill:url(#linearGradient4105);fill-opacity:1;fill-rule:evenodd;stroke:#000000;stroke-opacity:1" />
  </g>
  <g
     id="layer4"
     style="display:inline">
    <path
       d="m 84.5625,51.78125 c -25.10513,0 -45.46875,20.33237 -45.46875,45.4375 0,25.10513 20.36362,45.46875 45.46875,45.46875 11.08656,0 21.23574,-3.96803 29.125,-10.5625 l 67.5,64.5625 7.6875,-8.03125 -67.59375,-64.625 c 5.49307,-7.51419 8.75,-16.79167 8.75,-26.8125 0,-25.10513 -20.36362,-45.4375 -45.46875,-45.4375 z m 0,4.53125 c 22.03323,0 39.875,18.308064 39.875,40.90625 0,22.59819 -17.84177,40.9375 -39.875,40.9375 -22.033231,0 -39.90625,-18.33931 -39.90625,-40.9375 0,-22.598186 17.873019,-40.90625 39.90625,-40.90625 z"
       id="rect3899"
       style="fill:#b3b3b3;fill-opacity:1;stroke:#000000;stroke-width:1;stroke-miterlimit:4;stroke-opacity:1;stroke-dasharray:none;display:inline" />
  </g>
  <g
     transform="translate(-313.44877,-304.59572)"
     id="layer2"
     style="display:inline">
    <path
       d="m 455.62721,251.7735 c 1.523,-8.06155 5.19235,-15.59078 9.70555,-22.442 4.51319,-6.85121 9.87536,-13.09406 15.13627,-19.38936 5.26092,-6.29531 10.45869,-12.69606 14.58923,-19.78455 4.13054,-7.08849 7.18167,-14.93919 7.81232,-23.11907 0.69655,-9.03456 -1.62333,-18.19139 -6.01895,-26.1152 C 492.456,132.9995 486.0448,126.28235 478.67629,121.00851 463.93925,110.46084 445.82438,105.7768 427.92128,102.96389 353.03021,91.19713 273.78913,109.80773 212.03597,153.78131 150.28281,197.7549 106.76122,266.59805 93.643718,341.26438 c -13.117501,74.66633 4.355372,154.26689 47.638362,216.50604 43.28299,62.23915 111.87325,106.34142 186.48361,119.77358 34.87892,6.27928 71.94758,5.85801 104.45565,-8.25559 21.94091,-9.52579 41.33,-25.32556 53.94065,-45.65081 17.72973,-28.57594 20.93538,-65.75093 8.05093,-96.81407 -7.94065,-19.14413 -21.35439,-35.51266 -35.80481,-50.36987 -14.45042,-14.85722 -30.1317,-28.5255 -43.85305,-44.05857 -7.44665,-8.42988 -14.4478,-17.68396 -17.5014,-28.50943 -1.5268,-5.41274 -2.0161,-11.16259 -1.01173,-16.69613 1.00438,-5.53354 3.54841,-10.83827 7.53344,-14.80669 5.77218,-5.74813 14.18771,-8.31512 22.33321,-8.21605 8.1455,0.0991 16.08319,2.6357 23.53728,5.92137 7.45408,3.28567 14.5504,7.33367 21.96944,10.69771 7.41905,3.36403 15.28521,6.0638 23.42351,6.42027 5.96743,0.26139 12.00102,-0.765 17.50004,-3.09724 5.49902,-2.33224 10.45159,-5.97682 14.22071,-10.61063 3.76913,-4.63382 6.33737,-10.2553 7.25433,-16.15765 0.91696,-5.90234 0.16558,-12.07092 -2.25108,-17.53336 -2.28253,-5.15926 -5.98691,-9.60844 -10.2939,-13.25231 -4.307,-3.64386 -9.21342,-6.5184 -14.25985,-9.0406 -10.09286,-5.04439 -20.93189,-8.80363 -30.07408,-15.41665 -7.78896,-5.63416 -14.14619,-13.29301 -17.98356,-22.10698 -3.83738,-8.81398 -5.10876,-18.77122 -3.32421,-28.21722"
       mask="url(#mask4004)"
       id="path3799"
       style="fill:url(#linearGradient3008);fill-opacity:1;stroke:#000000;stroke-width:2;stroke-miterlimit:4;stroke-opacity:1;stroke-dasharray:none" />
  </g>
</svg>
